<?xml version="1.0" encoding="UTF-8"?>
<!DOCTYPE svg PUBLIC "-//W3C//DTD SVG 1.1//EN" "http://www.w3.org/Graphics/SVG/1.1/DTD/svg11.dtd">
<!-- Creator: CorelDRAW -->
<svg xmlns="http://www.w3.org/2000/svg" xml:space="preserve" width="0.12in" height="0.1in" style="shape-rendering:geometricPrecision; text-rendering:geometricPrecision; image-rendering:optimizeQuality; fill-rule:evenodd; clip-rule:evenodd"
viewBox="0 0 0.12 0.1"
 version="1.1"
 xmlns:xlink="http://www.w3.org/1999/xlink">
 <defs>
  <style type="text/css">
   <![CDATA[
    .fil2 {fill:#FF6465}
    .fil0 {fill:white}
    .fil1 {fill:black;fill-opacity:0.101961}
   ]]>
  </style>
 </defs>
 <g id="Layer_x0020_1">
  <metadata id="CorelCorpID_0Corel-Layer"/>
  <g id="_163220384">
   <g>
    <circle id="_163908096" class="fil0" cx="0.06" cy="0.05" r="0.0429213"/>
    <path id="_163909584" class="fil0" d="M0.0300512 0.0702795l0.0502283 -0.0502283c-0.00578346,-0.0039252 -0.0127638,-0.00621654 -0.0202795,-0.00621654 -0.0199724,0 -0.0361654,0.0161929 -0.0361654,0.0361654 0,0.00751575 0.00229134,0.0144961 0.00621654,0.0202795z"/>
   </g>
   <path id="_163909752" class="fil1" d="M0.0263307 0.0632244c-9.44882e-005,-0.00116535 -0.000145669,-0.00234252 -0.000145669,-0.0035315 0,-0.0235709 0.0191063,-0.0426772 0.0426772,-0.0426772 0.00248425,0 0.00492126,0.000212598 0.0072874,0.000622047 -0.0048622,-0.00242913 -0.0103465,-0.00379921 -0.0161496,-0.00379921 -0.0199724,0 -0.0361654,0.0161929 -0.0361654,0.0361654 0,0.00466142 0.000885827,0.00912205 0.00249606,0.0132205z"/>
   <path id="_163909656" class="fil2" d="M0.06 0c-0.0276142,0 -0.05,0.0223858 -0.05,0.05 0,0.0276142 0.0223858,0.05 0.05,0.05 0.0276142,0 0.05,-0.0223858 0.05,-0.05 0,-0.0276142 -0.0223858,-0.05 -0.05,-0.05zm-0.0361654 0.05c0,-0.0199724 0.0161929,-0.0361654 0.0361654,-0.0361654 0.00751575,0 0.0144961,0.00229134 0.0202795,0.00621654l-0.0502283 0.0502283c-0.0039252,-0.00578346 -0.00621654,-0.0127638 -0.00621654,-0.0202795zm0.0361654 0.0361654c-0.00751575,0 -0.0144961,-0.00229134 -0.0202795,-0.00621654l0.0502283 -0.0502283c0.0039252,0.00578346 0.00621654,0.0127638 0.00621654,0.0202795 0,0.0199724 -0.0161929,0.0361654 -0.0361654,0.0361654z"/>
   <g>
   </g>
   <g>
   </g>
   <g>
   </g>
   <g>
   </g>
   <g>
   </g>
   <g>
   </g>
   <g>
   </g>
   <g>
   </g>
   <g>
   </g>
   <g>
   </g>
   <g>
   </g>
   <g>
   </g>
   <g>
   </g>
   <g>
   </g>
   <g>
   </g>
  </g>
 </g>
</svg>
