<?xml version="1.0" encoding="UTF-8"?>
<!DOCTYPE svg PUBLIC "-//W3C//DTD SVG 1.1//EN" "http://www.w3.org/Graphics/SVG/1.1/DTD/svg11.dtd">
<!-- Creator: CorelDRAW -->
<svg xmlns="http://www.w3.org/2000/svg" xml:space="preserve" width="0.12in" height="0.1in" style="shape-rendering:geometricPrecision; text-rendering:geometricPrecision; image-rendering:optimizeQuality; fill-rule:evenodd; clip-rule:evenodd"
viewBox="0 0 0.12 0.1"
 version="1.1"
 xmlns:xlink="http://www.w3.org/1999/xlink">
 <defs>
  <style type="text/css">
   <![CDATA[
    .fil0 {fill:#A5EB78}
    .fil1 {fill:black;fill-opacity:0.101961}
   ]]>
  </style>
 </defs>
 <g id="Layer_x0020_1">
  <metadata id="CorelCorpID_0Corel-Layer"/>
  <g id="_163219616">
   <path id="_163216976" class="fil0" d="M0.101516 0.00573228l-0.0543386 0.0543346c-0.00146457,0.00146457 -0.00383858,0.00146457 -0.00530315,0l-0.0233898 -0.0233898 -0.0184843 0.0184803 0.0352835 0.0352835c0.00245276,0.00245276 0.00577559,0.00382677 0.00924409,0.00382677l0 0c0.00346457,0 0.0067874,-0.00137402 0.00924016,-0.00382677l0.0662323 -0.0662283 -0.0184843 -0.0184803z"/>
   <g>
    <path id="_163217696" class="fil1" d="M0.113886 0.0181024l-0.0699213 0.0699173c-0.00193307,0.00193307 -0.00436614,0.00325197 -0.00699213,0.00383858 0.00219291,0.00155512 0.00482677,0.00241339 0.00755118,0.00241339l0 0c0.0034685,0 0.00679134,-0.00137795 0.00924409,-0.00383071l0.0662283 -0.0662283 -0.00611024 -0.00611024z"/>
   </g>
   <g>
   </g>
   <g>
   </g>
   <g>
   </g>
   <g>
   </g>
   <g>
   </g>
   <g>
   </g>
   <g>
   </g>
   <g>
   </g>
   <g>
   </g>
   <g>
   </g>
   <g>
   </g>
   <g>
   </g>
   <g>
   </g>
   <g>
   </g>
   <g>
   </g>
  </g>
 </g>
</svg>
